<svg width="100" height="100" viewBox="0 0 100 100" fill="none" xmlns="http://www.w3.org/2000/svg">
<path d="M3.04803 97.0984H97.1753" stroke="#F1F1F1" stroke-width="4" stroke-miterlimit="10" stroke-linecap="round"/>
<path d="M3 38.2941C3 17.1176 28.3357 3 50.0588 3C71.7819 3 97.1176 17.1176 97.1176 38.2941" stroke="#F1F1F1" stroke-width="4" stroke-miterlimit="10" stroke-linecap="round"/>
<path d="M60.647 87.9412C60.647 83 59.3902 81.6916 56.4117 79.7059C55 78.7647 52.647 78.5294 51.4706 78.5294C48.1069 78.5293 45.5882 78.7647 42.7647 76.4117C40.9845 74.9282 40.647 73.8236 40.647 72.1765V67.9412C40.647 67.1577 40.647 65.1177 37.5882 65.1177C34.8683 65.1177 32.3833 63.3692 33.8235 61.353C36.1765 58.0589 36.647 57.5883 38.5294 54.7647C40.7749 51.3965 40.4117 51.8508 40.4117 47C40.4117 35 57.1134 32.1765 63.7059 32.1765C70.2941 32.1765 86.7647 35 86.7647 47.9412C86.7647 55.5036 86.9224 65.1928 86.0588 68.6471C85.5882 70.5295 84.5457 72.9502 81.5882 76.1765C79 79 74.0588 79.7059 74.0588 87.9412" stroke="#F1F1F1" stroke-width="4" stroke-miterlimit="10" stroke-linecap="round"/>
<path d="M33.3529 69.3914C29.9892 69.3913 25.8235 69.6339 23 67.2809C21.2198 65.7973 20.8823 64.6927 20.8823 63.0457V58.8104C20.8823 58.0269 20.8823 55.9868 17.8235 55.9868C15.1035 55.9868 12.6186 54.2384 14.0588 52.2221C16.4117 48.928 16.8823 48.4574 18.7647 45.6339C21.0102 42.2656 20.647 42.7199 20.647 37.8692C20.647 25.8692 37.3487 23.0457 43.9412 23.0457C47.7218 23.0457 54.7568 23.9755 60.0661 27.2135" stroke="white" stroke-width="4" stroke-miterlimit="10" stroke-linecap="round"/>
<path d="M86.0588 59.072H75.9226H60.4117" stroke="#F1F1F1" stroke-width="4" stroke-miterlimit="10" stroke-linecap="round"/>
<path d="M69.6456 48.8823L78.7791 59.072" stroke="#F1F1F1" stroke-width="4" stroke-miterlimit="10" stroke-linecap="round"/>
<path d="M64.3573 68.647L72.9183 59.0959" stroke="#F1F1F1" stroke-width="4" stroke-miterlimit="10" stroke-linecap="round"/>
<path d="M69.5002 48.8967H62.9324H52.8823" stroke="#F1F1F1" stroke-width="4" stroke-miterlimit="10" stroke-linecap="round"/>
<path d="M64.1612 68.6614H60.9125H55.9412" stroke="#F1F1F1" stroke-width="4" stroke-miterlimit="10" stroke-linecap="round"/>
<path d="M55.9412 72.1765C57.8904 72.1765 59.4706 70.5963 59.4706 68.6471C59.4706 66.6978 57.8904 65.1177 55.9412 65.1177C53.9919 65.1177 52.4117 66.6978 52.4117 68.6471C52.4117 70.5963 53.9919 72.1765 55.9412 72.1765Z" fill="#F1F1F1"/>
<path d="M60.1765 62.5295C62.1257 62.5295 63.7059 60.9494 63.7059 59.0001C63.7059 57.0509 62.1257 55.4707 60.1765 55.4707C58.2273 55.4707 56.6471 57.0509 56.6471 59.0001C56.6471 60.9494 58.2273 62.5295 60.1765 62.5295Z" fill="#F1F1F1"/>
<path d="M51.7059 52.4119C53.6551 52.4119 55.2353 50.8317 55.2353 48.8824C55.2353 46.9332 53.6551 45.353 51.7059 45.353C49.7566 45.353 48.1765 46.9332 48.1765 48.8824C48.1765 50.8317 49.7566 52.4119 51.7059 52.4119Z" fill="#F1F1F1"/>
</svg>
